<svg id="e8XnfVvd6ED1" xmlns="http://www.w3.org/2000/svg" xmlns:xlink="http://www.w3.org/1999/xlink" viewBox="0 0 900 600" shape-rendering="geometricPrecision" text-rendering="geometricPrecision"><style><![CDATA[#e8XnfVvd6ED4_ts {animation: e8XnfVvd6ED4_ts__ts 3000ms linear infinite alternate forwards}@keyframes e8XnfVvd6ED4_ts__ts { 0% {transform: translate(-148.75px,148.75px) scale(1.320206,1.179858)} 33.333333% {transform: translate(-148.75px,148.75px) scale(1.05206,1)} 66.666667% {transform: translate(-148.75px,148.75px) scale(1.363464,1.257714)} 100% {transform: translate(-148.75px,148.75px) scale(1.008811,1.016807)}} #e8XnfVvd6ED5_ts {animation: e8XnfVvd6ED5_ts__ts 3000ms linear infinite alternate forwards}@keyframes e8XnfVvd6ED5_ts__ts { 0% {transform: translate(-119px,119px) scale(1.5,1.313947)} 33.333333% {transform: translate(-119px,119px) scale(1.12174,1.011179)} 66.666667% {transform: translate(-119px,119px) scale(1.381255,1.173379)} 100% {transform: translate(-119px,119px) scale(1.024424,1.021994)}} #e8XnfVvd6ED6_ts {animation: e8XnfVvd6ED6_ts__ts 3000ms linear infinite alternate forwards}@keyframes e8XnfVvd6ED6_ts__ts { 0% {transform: translate(-89.25px,89.25px) scale(1.482981,1.292315)} 33.333333% {transform: translate(-89.25px,89.25px) scale(1.021638,1.032811)} 66.666667% {transform: translate(-89.25px,89.25px) scale(1.425312,1.321149)} 100% {transform: translate(-89.25px,89.25px) scale(1.021636,0.989558)}} #e8XnfVvd6ED7_ts {animation: e8XnfVvd6ED7_ts__ts 3000ms linear infinite alternate forwards}@keyframes e8XnfVvd6ED7_ts__ts { 0% {transform: translate(-50.979541px,59.5px) scale(1.483644,1.378825)} 33.333333% {transform: translate(-50.979541px,59.5px) scale(0.878112,1)} 66.666667% {transform: translate(-50.979541px,59.5px) scale(1.643201,1.40045)} 100% {transform: translate(-50.979541px,59.5px) scale(0.87811,0.999998)}} #e8XnfVvd6ED8_ts {animation: e8XnfVvd6ED8_ts__ts 3000ms linear infinite alternate forwards}@keyframes e8XnfVvd6ED8_ts__ts { 0% {transform: translate(-29.75px,29.75px) scale(2,1.638325)} 33.333333% {transform: translate(-29.75px,29.75px) scale(0.999999,1)} 66.666667% {transform: translate(-29.75px,29.75px) scale(2.21032,2)} 100% {transform: translate(-29.75px,29.75px) scale(1,1)}} #e8XnfVvd6ED10_ts {animation: e8XnfVvd6ED10_ts__ts 3000ms linear infinite alternate forwards}@keyframes e8XnfVvd6ED10_ts__ts { 0% {transform: translate(148.75px,-149.75px) scale(1.207755,1.063282)} 33.333333% {transform: translate(148.75px,-149.75px) scale(1.008808,1.026891)} 66.666667% {transform: translate(148.75px,-149.75px) scale(1.207755,1.026891)} 100% {transform: translate(148.75px,-149.75px) scale(1.034759,1.010084)}} #e8XnfVvd6ED11_ts {animation: e8XnfVvd6ED11_ts__ts 3000ms linear infinite alternate forwards}@keyframes e8XnfVvd6ED11_ts__ts { 0% {transform: translate(119px,-119px) scale(1.316381,1.144183)} 33.333333% {transform: translate(119px,-119px) scale(1.07849,1.025239)} 66.666667% {transform: translate(119px,-119px) scale(1.392071,1.219874)} 100% {transform: translate(119px,-119px) scale(1.15418,0.971173)}}]]></style><rect id="e8XnfVvd6ED2" width="900" height="600" rx="0" ry="0" fill="rgb(44,62,80)" stroke="none" stroke-width="1"/><g id="e8XnfVvd6ED3" transform="matrix(1 0 0 1 900 0)"><g id="e8XnfVvd6ED4_ts" transform="translate(-148.75,148.75) scale(1.320206,1.179858)"><path id="e8XnfVvd6ED4" d="M0,297.5C-22.4,269.7,-44.7,242,-77.3,237.8C-109.8,233.6,-152.5,252.9,-174.8,240.6C-197.2,228.4,-199.1,184.4,-213.6,155.2C-228,126,-255,111.5,-271.1,88.1C-287.1,64.7,-292.3,32.3,-297.5,0L0,0Z" transform="translate(148.75,-148.75)" fill="rgb(53,68,100)" stroke="none" stroke-width="1"/></g><g id="e8XnfVvd6ED5_ts" transform="translate(-119,119) scale(1.5,1.313947)"><path id="e8XnfVvd6ED5" d="M0,238C-17.9,215.8,-35.8,193.6,-61.8,190.2C-87.8,186.9,-122,202.4,-139.9,192.5C-157.7,182.7,-159.3,147.5,-170.9,124.1C-182.4,100.8,-204,89.2,-216.8,70.5C-229.7,51.7,-233.8,25.9,-238,0L0,0Z" transform="translate(119,-119)" fill="rgb(103,73,128)" stroke="none" stroke-width="1"/></g><g id="e8XnfVvd6ED6_ts" transform="translate(-89.25,89.25) scale(1.482981,1.292315)"><path id="e8XnfVvd6ED6" d="M0,178.5C-13.4,161.8,-26.8,145.2,-46.4,142.7C-65.9,140.1,-91.5,151.8,-104.9,144.4C-118.3,137,-119.5,110.6,-128.1,93.1C-136.8,75.6,-153,66.9,-162.6,52.8C-172.3,38.8,-175.4,19.4,-178.5,0L0,0Z" transform="translate(89.25,-89.25)" fill="rgb(168,65,125)" stroke="none" stroke-width="1"/></g><g id="e8XnfVvd6ED7_ts" transform="translate(-50.979541,59.5) scale(1.483644,1.378825)"><path id="e8XnfVvd6ED7" d="M0,119C-8.9,107.9,-17.9,96.8,-30.9,95.1C-43.9,93.4,-61,101.2,-69.9,96.3C-78.9,91.3,-79.7,73.8,-85.4,62.1C-91.2,50.4,-102,44.6,-108.4,35.2C-114.8,25.9,-116.9,12.9,-119,0L0,0Z" transform="translate(59.5,-59.5)" fill="rgb(219,62,88)" stroke="none" stroke-width="1"/></g><g id="e8XnfVvd6ED8_ts" transform="translate(-29.75,29.75) scale(2,1.638325)"><path id="e8XnfVvd6ED8" d="M0,59.5C-4.5,53.9,-8.9,48.4,-15.5,47.6C-22,46.7,-30.5,50.6,-35,48.1C-39.4,45.7,-39.8,36.9,-42.7,31C-45.6,25.2,-51,22.3,-54.2,17.6C-57.4,12.9,-58.5,6.5,-59.5,0L0,0Z" transform="translate(29.75,-29.75)" fill="rgb(231,76,60)" stroke="none" stroke-width="1"/></g></g><g id="e8XnfVvd6ED9" transform="matrix(1 0 0 1 0 600)"><g id="e8XnfVvd6ED10_ts" transform="translate(148.75,-149.75) scale(1.207755,1.063282)"><path id="e8XnfVvd6ED10" d="M0,-297.5C25.1,-275.9,50.2,-254.4,80.7,-248.2C111.1,-242,146.9,-251.1,174.8,-240.6C202.8,-230.2,223,-200.3,235.4,-171C247.8,-141.8,252.5,-113.4,261.5,-85C270.6,-56.6,284,-28.3,297.5,0L0,0Z" transform="translate(-148.75,148.75)" fill="rgb(53,68,100)" stroke="none" stroke-width="1"/></g><g id="e8XnfVvd6ED11_ts" transform="translate(119,-119) scale(1.316381,1.144183)"><path id="e8XnfVvd6ED11" d="M0,-238C20.1,-220.8,40.2,-203.6,64.5,-198.6C88.9,-193.6,117.5,-200.9,139.9,-192.5C162.3,-184.2,178.4,-160.2,188.3,-136.8C198.3,-113.5,202,-90.7,209.2,-68C216.5,-45.3,227.2,-22.6,238,0L0,0Z" transform="translate(-119,119)" fill="rgb(103,73,128)" stroke="none" stroke-width="1"/></g><path id="e8XnfVvd6ED12" d="M0,-178.5C15.1,-165.6,30.1,-152.7,48.4,-148.9C66.7,-145.2,88.1,-150.7,104.9,-144.4C121.7,-138.1,133.8,-120.2,141.3,-102.6C148.7,-85.1,151.5,-68,156.9,-51C162.4,-34,170.4,-17,178.5,0L0,0Z" fill="rgb(168,65,125)" stroke="none" stroke-width="1"/><path id="e8XnfVvd6ED13" d="M0,-119C10,-110.4,20.1,-101.8,32.3,-99.3C44.4,-96.8,58.7,-100.4,69.9,-96.3C81.1,-92.1,89.2,-80.1,94.2,-68.4C99.1,-56.7,101,-45.3,104.6,-34C108.2,-22.6,113.6,-11.3,119,0L0,0Z" fill="rgb(219,62,88)" stroke="none" stroke-width="1"/><path id="e8XnfVvd6ED14" d="M0,-59.5C5,-55.2,10,-50.9,16.1,-49.6C22.2,-48.4,29.4,-50.2,35,-48.1C40.6,-46,44.6,-40.1,47.1,-34.2C49.6,-28.4,50.5,-22.7,52.3,-17C54.1,-11.3,56.8,-5.7,59.5,0L0,0Z" fill="rgb(231,76,60)" stroke="none" stroke-width="1"/></g></svg>